<svg width="16" height="16" viewBox="0 0 16 16" fill="none" xmlns="http://www.w3.org/2000/svg">
<path fill-rule="evenodd" clip-rule="evenodd" d="M0 0H2.14938C3.13013 0 3.96618 0.711158 4.12349 1.67921L4.50062 4H13.6931C15.0104 4 15.968 5.25135 15.6236 6.52283L14.5403 10.5228C14.3041 11.3946 13.513 12 12.6098 12H5.47562C4.49487 12 3.65882 11.2888 3.50151 10.3208L2.14938 2H0V0ZM4.82562 6L5.47562 10H12.6098L13.6931 6H4.82562Z" fill="white"/>
<path fill-rule="evenodd" clip-rule="evenodd" d="M5.5 15C5.77614 15 6 14.7761 6 14.5C6 14.2239 5.77614 14 5.5 14C5.22386 14 5 14.2239 5 14.5C5 14.7761 5.22386 15 5.5 15ZM5.5 16C6.32843 16 7 15.3284 7 14.5C7 13.6716 6.32843 13 5.5 13C4.67157 13 4 13.6716 4 14.5C4 15.3284 4.67157 16 5.5 16Z" fill="white"/>
<path fill-rule="evenodd" clip-rule="evenodd" d="M12.5 15C12.7761 15 13 14.7761 13 14.5C13 14.2239 12.7761 14 12.5 14C12.2239 14 12 14.2239 12 14.5C12 14.7761 12.2239 15 12.5 15ZM12.5 16C13.3284 16 14 15.3284 14 14.5C14 13.6716 13.3284 13 12.5 13C11.6716 13 11 13.6716 11 14.5C11 15.3284 11.6716 16 12.5 16Z" fill="white"/>
</svg>
