<svg width="19" height="18" viewBox="0 0 19 18" fill="none" xmlns="http://www.w3.org/2000/svg">
<path fill-rule="evenodd" clip-rule="evenodd" d="M5.72917 2.3635C3.83069 2.3635 2.29167 3.95076 2.29167 5.90874C2.29167 8.95878 4.01402 11.3194 5.90195 12.9883C6.83564 13.8137 7.77461 14.4369 8.4819 14.8537C8.74978 15.0116 8.98251 15.1387 9.16667 15.2351C9.35082 15.1387 9.58355 15.0116 9.85143 14.8537C10.5587 14.4369 11.4977 13.8137 12.4314 12.9883C14.3193 11.3194 16.0417 8.95878 16.0417 5.90874C16.0417 3.95076 14.5026 2.3635 12.6042 2.3635C11.6659 2.3635 10.7262 2.91794 10.0257 3.73637L9.16667 4.74021L8.30759 3.73637C7.60718 2.91794 6.6674 2.3635 5.72917 2.3635ZM9.16667 16.5445C8.7153 17.6307 8.71446 17.6303 8.71446 17.6303L8.71084 17.6287L8.70346 17.6254L8.68008 17.6148C8.66074 17.606 8.63395 17.5936 8.6002 17.5777C8.53272 17.5459 8.43732 17.4999 8.31801 17.4396C8.07955 17.3191 7.74449 17.1413 7.34492 16.9058C6.54831 16.4363 5.48207 15.73 4.41055 14.7828C2.28806 12.9065 0 9.9492 0 5.90874C0 2.64543 2.56504 0 5.72917 0C7.06543 0 8.24628 0.566854 9.16667 1.32721C10.0871 0.566854 11.2679 0 12.6042 0C15.7683 0 18.3333 2.64543 18.3333 5.90874C18.3333 9.9492 16.0453 12.9065 13.9228 14.7828C12.8513 15.73 11.785 16.4363 10.9884 16.9058C10.5888 17.1413 10.2538 17.3191 10.0153 17.4396C9.89601 17.4999 9.80062 17.5459 9.73314 17.5777C9.69939 17.5936 9.67259 17.606 9.65325 17.6148L9.62988 17.6254L9.62249 17.6287L9.61989 17.6299C9.61989 17.6299 9.61803 17.6307 9.16667 16.5445ZM9.16667 16.5445L8.71446 17.6303L9.16667 17.8302L9.61803 17.6307L9.16667 16.5445Z" fill="#2750D3"/>
</svg>
