<svg width="17" height="17" viewBox="0 0 17 17" fill="none" xmlns="http://www.w3.org/2000/svg">
<path fill-rule="evenodd" clip-rule="evenodd" d="M8.33334 1.66667C7.19848 1.66627 6.0823 1.95559 5.09053 2.50722C4.09875 3.05885 3.26422 3.85452 2.66596 4.81889C2.06769 5.78325 1.72552 6.88437 1.67183 8.01796C1.61814 9.15155 1.85473 10.2801 2.35917 11.2967C2.60251 11.7867 2.59084 12.3858 2.53917 12.8517C2.48334 13.3567 2.35584 13.8942 2.22001 14.3708C2.15667 14.5917 2.09084 14.8042 2.02584 15H8.33334C10.1015 15 11.7971 14.2976 13.0474 13.0474C14.2976 11.7971 15 10.1014 15 8.33333C15 6.56522 14.2976 4.86953 13.0474 3.61929C11.7971 2.36905 10.1015 1.66667 8.33334 1.66667ZM0.0650075 15.5125L0.0666743 15.5075L0.0766741 15.4842C0.136568 15.3379 0.193248 15.1904 0.246674 15.0417C0.355007 14.7458 0.495007 14.3433 0.617507 13.9142C0.739097 13.5064 0.827716 13.0895 0.882508 12.6675C0.903341 12.4817 0.907508 12.3283 0.898341 12.2108C0.895332 12.1665 0.888924 12.1225 0.879174 12.0792C0.872508 12.05 0.866674 12.0375 0.866674 12.0375C0.294963 10.8865 -0.00171481 9.61849 7.45583e-06 8.33333C7.45583e-06 3.73083 3.73084 0 8.33334 0C12.9358 0 16.6667 3.73083 16.6667 8.33333C16.6667 12.9358 12.9358 16.6667 8.33334 16.6667H0.833341C0.696221 16.6666 0.561232 16.6327 0.440342 16.568C0.319453 16.5033 0.216399 16.4098 0.14032 16.2957C0.0642409 16.1816 0.017487 16.0505 0.00420422 15.9141C-0.00907858 15.7776 0.0115203 15.6399 0.0641742 15.5133L0.0650075 15.5125ZM4.16334 7.08333C4.16334 6.86232 4.25114 6.65036 4.40742 6.49408C4.5637 6.3378 4.77566 6.25 4.99667 6.25H11.6633C11.8844 6.25 12.0963 6.3378 12.2526 6.49408C12.4089 6.65036 12.4967 6.86232 12.4967 7.08333C12.4967 7.30435 12.4089 7.51631 12.2526 7.67259C12.0963 7.82887 11.8844 7.91667 11.6633 7.91667H4.99667C4.77566 7.91667 4.5637 7.82887 4.40742 7.67259C4.25114 7.51631 4.16334 7.30435 4.16334 7.08333ZM4.16334 10.4167C4.16334 10.1957 4.25114 9.98369 4.40742 9.82741C4.5637 9.67113 4.77566 9.58333 4.99667 9.58333H7.49667C7.71769 9.58333 7.92965 9.67113 8.08593 9.82741C8.24221 9.98369 8.33001 10.1957 8.33001 10.4167C8.33001 10.6377 8.24221 10.8496 8.08593 11.0059C7.92965 11.1622 7.71769 11.25 7.49667 11.25H4.99667C4.77566 11.25 4.5637 11.1622 4.40742 11.0059C4.25114 10.8496 4.16334 10.6377 4.16334 10.4167Z" fill="#939393"/>
</svg>
