<svg width="16" height="16" viewBox="0 0 16 16" fill="none" xmlns="http://www.w3.org/2000/svg">
<path fill-rule="evenodd" clip-rule="evenodd" d="M5 2C3.34315 2 2 3.34315 2 5C2 7.58095 3.50315 9.57848 5.15079 10.9907C5.96565 11.6892 6.78512 12.2165 7.40239 12.5693C7.63617 12.7028 7.83928 12.8104 8 12.892C8.16072 12.8104 8.36383 12.7028 8.59761 12.5693C9.21488 12.2165 10.0343 11.6892 10.8492 10.9907C12.4969 9.57848 14 7.58095 14 5C14 3.34315 12.6569 2 11 2C10.1812 2 9.36101 2.46917 8.74974 3.16173L8 4.01118L7.25026 3.16173C6.63899 2.46917 5.81882 2 5 2ZM8 14C7.60608 14.9191 7.60573 14.919 7.60535 14.9188L7.60219 14.9175L7.59574 14.9147L7.57535 14.9057C7.55847 14.8982 7.53508 14.8878 7.50563 14.8743C7.44673 14.8474 7.36348 14.8084 7.25935 14.7574C7.05124 14.6555 6.75882 14.505 6.41011 14.3057C5.71488 13.9085 4.78435 13.3108 3.84921 12.5093C1.99685 10.9215 0 8.41905 0 5C0 2.23858 2.23858 0 5 0C6.1662 0 7.19675 0.479673 8 1.12309C8.80325 0.479673 9.8338 0 11 0C13.7614 0 16 2.23858 16 5C16 8.41905 14.0031 10.9215 12.1508 12.5093C11.2157 13.3108 10.2851 13.9085 9.58989 14.3057C9.24118 14.505 8.94876 14.6555 8.74065 14.7574C8.63652 14.8084 8.55327 14.8474 8.49437 14.8743C8.46492 14.8878 8.44153 14.8982 8.42465 14.9057L8.40426 14.9147L8.39781 14.9175L8.39554 14.9184C8.39516 14.9186 8.39392 14.9191 8 14ZM8 14L7.60535 14.9188L8 15.088L8.39392 14.9191L8 14Z" fill="white"/>
</svg>
