<svg width="17" height="15" viewBox="0 0 17 15" fill="none" xmlns="http://www.w3.org/2000/svg">
<path fill-rule="evenodd" clip-rule="evenodd" d="M5.25 1.66693C3.19 1.66693 1.66667 3.64526 1.66667 5.63359C1.66667 6.58526 2.04167 7.54359 2.67583 8.47776C3.30917 9.41109 4.1725 10.2753 5.06667 11.0194C5.84812 11.665 6.67467 12.254 7.54 12.7819C7.86333 12.9803 8.13667 13.1344 8.33333 13.2403C8.53 13.1344 8.80333 12.9803 9.12667 12.7819C9.992 12.254 10.8185 11.665 11.6 11.0194C12.4942 10.2753 13.3567 9.41109 13.9908 8.47776C14.6258 7.54359 15 6.58609 15 5.63359C15 3.64526 13.4767 1.66693 11.4167 1.66693C10.2133 1.66693 9.43417 2.25859 8.96417 2.80276C8.88594 2.89339 8.78909 2.9661 8.68024 3.01594C8.57138 3.06578 8.45306 3.09158 8.33333 3.09158C8.21361 3.09158 8.09529 3.06578 7.98643 3.01594C7.87757 2.9661 7.78073 2.89339 7.7025 2.80276C7.2325 2.25859 6.45333 1.66693 5.25 1.66693ZM0 5.63359C0 2.9886 2.02667 0.000261489 5.25 0.000261489C6.60833 0.000261489 7.62333 0.510261 8.33333 1.09609C9.1987 0.376834 10.2915 -0.0115456 11.4167 0.000261489C14.64 0.000261489 16.6667 2.9886 16.6667 5.63359C16.6667 7.02776 16.12 8.30859 15.37 9.41443C14.6183 10.5211 13.6308 11.4978 12.6667 12.3003C11.8229 12.9978 10.9304 13.6342 9.99583 14.2044C9.62833 14.4294 9.315 14.6061 9.08583 14.7278C8.99133 14.7787 8.89575 14.8276 8.79917 14.8744C8.7373 14.9038 8.67419 14.9305 8.61 14.9544C8.59417 14.9594 8.56833 14.9678 8.535 14.9761C8.40276 15.0082 8.26474 15.0082 8.1325 14.9761C8.08086 14.9639 8.02956 14.9471 7.98083 14.9261C7.94261 14.9099 7.90482 14.8926 7.8675 14.8744C7.77092 14.8276 7.67534 14.7787 7.58083 14.7278C7.27256 14.5621 6.9691 14.3875 6.67083 14.2044C5.73631 13.6342 4.84376 12.9978 4 12.3003C3.03583 11.4969 2.04833 10.5211 1.2975 9.41443C0.546667 8.30943 0 7.02776 0 5.63359Z" fill="#939393"/>
</svg>
