<svg width="19" height="19" viewBox="0 0 19 19" fill="none" xmlns="http://www.w3.org/2000/svg">
<path fill-rule="evenodd" clip-rule="evenodd" d="M0 9.33992V14.5286C0 15.6295 0.429231 16.6853 1.19327 17.4638C1.95731 18.2422 2.99356 18.6795 4.07407 18.6795H14.2593C15.3398 18.6795 16.376 18.2422 17.1401 17.4638C17.9041 16.6853 18.3333 15.6295 18.3333 14.5286V9.33992H16.2963V14.5286C16.2963 15.079 16.0817 15.6069 15.6997 15.9962C15.3176 16.3854 14.7995 16.6041 14.2593 16.6041H4.07407C3.53382 16.6041 3.01569 16.3854 2.63367 15.9962C2.25165 15.6069 2.03704 15.079 2.03704 14.5286V9.33992H0ZM8.14815 3.54313V12.4531H10.1852V3.54313L12.5206 5.92265L13.9608 4.45426L9.88676 0.304354C9.79217 0.207869 9.67984 0.131327 9.55619 0.0791034C9.43254 0.0268801 9.30001 0 9.16616 0C9.03231 0 8.89977 0.0268801 8.77613 0.0791034C8.65248 0.131327 8.54015 0.207869 8.44556 0.304354L4.37148 4.4553L5.81269 5.92265L8.14815 3.54313Z" fill="#2750D3"/>
</svg>
