<svg width="18" height="13" viewBox="0 0 18 13" fill="none" xmlns="http://www.w3.org/2000/svg">
<path d="M16.1144 7.81667C14.4978 9.5175 11.8586 11.6667 8.9586 11.6667V12.9167C12.4178 12.9167 15.3769 10.4067 17.0203 8.67833L16.1144 7.81667ZM8.9586 11.6667C6.0586 11.6667 3.41943 9.5175 1.80276 7.81667L0.896931 8.67833C2.54026 10.4067 5.50026 12.9167 8.9586 12.9167V11.6667ZM1.80276 5.1C3.41943 3.39917 6.0586 1.25 8.9586 1.25V0C5.49943 0 2.54026 2.51 0.896931 4.23833L1.80276 5.1ZM8.9586 1.25C11.8586 1.25 14.4978 3.39917 16.1144 5.1L17.0203 4.23833C15.3769 2.51 12.4169 0 8.9586 0V1.25ZM1.80276 7.81667C1.44848 7.45327 1.2502 6.96585 1.2502 6.45833C1.2502 5.95082 1.44848 5.46339 1.80276 5.1L0.896931 4.23833C0.32157 4.83414 0 5.63006 0 6.45833C0 7.2866 0.32157 8.08252 0.896931 8.67833L1.80276 7.81667ZM17.0203 8.67833C17.5956 8.08252 17.9164 7.2866 17.9164 6.45833C17.9164 5.63006 17.5956 4.83414 17.0203 4.23833L16.1144 5.1C16.8511 5.875 16.8511 7.04167 16.1144 7.81667L17.0203 8.67833ZM10.8336 6.45833C10.8336 6.95561 10.6361 7.43253 10.2844 7.78416C9.93279 8.13579 9.45588 8.33333 8.9586 8.33333V9.58333C9.7874 9.58333 10.5823 9.25409 11.1683 8.66804C11.7544 8.08199 12.0836 7.28714 12.0836 6.45833H10.8336ZM8.9586 8.33333C8.46132 8.33333 7.9844 8.13579 7.63277 7.78416C7.28114 7.43253 7.0836 6.95561 7.0836 6.45833H5.8336C5.8336 7.28714 6.16284 8.08199 6.74889 8.66804C7.33494 9.25409 8.1298 9.58333 8.9586 9.58333V8.33333ZM7.0836 6.45833C7.0836 5.96105 7.28114 5.48414 7.63277 5.13251C7.9844 4.78088 8.46132 4.58333 8.9586 4.58333V3.33333C8.1298 3.33333 7.33494 3.66257 6.74889 4.24862C6.16284 4.83468 5.8336 5.62953 5.8336 6.45833H7.0836ZM8.9586 4.58333C9.45588 4.58333 9.93279 4.78088 10.2844 5.13251C10.6361 5.48414 10.8336 5.96105 10.8336 6.45833H12.0836C12.0836 5.62953 11.7544 4.83468 11.1683 4.24862C10.5823 3.66257 9.7874 3.33333 8.9586 3.33333V4.58333Z" fill="#939393"/>
</svg>
